# xmcd
#
# Track frame offsets:
#	150
#	17041
#	42900
#
# Disc length: 931 seconds
#
# Revision: 0
# Processed by: cddbd v1.5.2PL0 Copyright (c) Steve Scherf et al.
# Submitted via: EasyCDDAExtractor 2011.0.0.0
#
DISCID=1b03a103
DTITLE=Jaimeson - Complete
DYEAR=2003
DGENRE=Drum 'N' Bass
TTITLE0=Complete (Radio Edit)
TTITLE1=Complete (4x4 Remix)
TTITLE2=Complete (Danny Fresh Full 12'' Mix)
EXTD=ID3G:  10\n
EXTT0=
EXTT1=
EXTT2=
PLAYORDER=
